<svg xmlns="http://www.w3.org/2000/svg" viewBox="0 0 13 24">
    <defs>
        <style>
            .cls-1{fill:none}.cls-2{fill:#e9dae0}.cls-3{clip-path:url(#clip-path)}.cls-4{clip-path:url(#clip-path-2)}.cls-5{clip-path:url(#clip-path-3)}.cls-6{fill:#7b7b7b}
        </style>
        <clipPath id="clip-path">
            <path id="crop" d="M0 0h13v24H0z" class="cls-1" transform="translate(0 -24)"/>
        </clipPath>
        <clipPath id="clip-path-2">
            <path id="Trazado_6" d="M12.087-20.967a1.5 1.5 0 0 0-.054-2.12 1.5 1.5 0 0 0-2.12.054l-9.5 10a1.5 1.5 0 0 0 0 2.066l9.5 10a1.5 1.5 0 0 0 2.12.054 1.5 1.5 0 0 0 .054-2.12L3.569-12z" class="cls-1" data-name="Trazado 6"/>
        </clipPath>
        <clipPath id="clip-path-3">
            <path id="Rect치ngulo_15" d="M0 0h375v812H0z" class="cls-1" data-name="Rect치ngulo 15" transform="translate(-20 -70)"/>
        </clipPath>
    </defs>
    <g id="Objeto_inteligente_vectorial_copia_6" data-name="Objeto inteligente vectorial copia 6" transform="translate(-201 -1248)">
        <g id="Objeto_inteligente_vectorial_copia_6-2" class="cls-3" data-name="Objeto inteligente vectorial copia 6" transform="rotate(-180 107 624)">
            <g id="Grupo_31" data-name="Grupo 31">
                <g id="Grupo_30" class="cls-4" data-name="Grupo 30">
                    <g id="Grupo_29" data-name="Grupo 29">
                        <g id="Grupo_28" class="cls-5" data-name="Grupo 28">
                            <path id="Rect치ngulo_14" d="M0 0h22.5v33H0z" class="cls-6" data-name="Rect치ngulo 14" transform="translate(-5 -28.5)"/>
                        </g>
                    </g>
                </g>
            </g>
        </g>
        <path id="Color_Overlay" d="M201.967 1271.087a1.5 1.5 0 0 1-.054-2.12l8.518-8.968-8.518-8.967a1.5 1.5 0 0 1 2.174-2.066l9.5 10a1.5 1.5 0 0 1 0 2.065l-9.5 10a1.5 1.5 0 0 1-2.12.054z" class="cls-2" data-name="Color Overlay"/>
    </g>
</svg>
